# xmcd
#
# Track frame offsets:
#	150
#	33107
#	84379
#	110557
#	140659
#	191384
#	248169
#	262718
#	290123
#	314792
#	346623
#
# Disc length: 4801 seconds
#
# Revision: 1
# Processed by: cddbd v1.5.2PL0 Copyright (c) Steve Scherf et al.
# Submitted via: audiograbber 1.83.01
#
DISCID=9912bf0b
DTITLE=Stan Webb Chicken Shack - I'd Rather Go Live
DYEAR=2006
DGENRE=Blues
TTITLE0=So Tell Me
TTITLE1=The Thrill Has Gone
TTITLE2=Reconsider Baby
TTITLE3=I Know You Know Me
TTITLE4=You Are The Sweetest Little Thing_hurt
TTITLE5=Stan Webb's Chicken Shack Opera
TTITLE6=Spoonful
TTITLE7=Doctor Brown
TTITLE8=I'd Rather Go Blind
TTITLE9=The Daughter Of The Hillside
TTITLE10=Stan's Blues
EXTD=
EXTT0=
EXTT1=
EXTT2=
EXTT3=
EXTT4=
EXTT5=
EXTT6=
EXTT7=
EXTT8=
EXTT9=
EXTT10=
PLAYORDER=
